<?xml version="1.0" encoding="UTF-8" standalone="no"?>
<!-- Created with Inkscape (http://www.inkscape.org/) -->

<svg
   xmlns:dc="http://purl.org/dc/elements/1.1/"
   xmlns:cc="http://creativecommons.org/ns#"
   xmlns:rdf="http://www.w3.org/1999/02/22-rdf-syntax-ns#"
   xmlns:svg="http://www.w3.org/2000/svg"
   xmlns="http://www.w3.org/2000/svg"
   xmlns:sodipodi="http://sodipodi.sourceforge.net/DTD/sodipodi-0.dtd"
   xmlns:inkscape="http://www.inkscape.org/namespaces/inkscape"
   width="210mm"
   height="297mm"
   viewBox="0 0 210 297"
   version="1.1"
   id="svg8"
   inkscape:version="0.92.4 (5da689c313, 2019-01-14)"
   sodipodi:docname="helix_logo.svg"
   inkscape:export-filename="C:\Users\scriplez\Desktop\helix_logo.png"
   inkscape:export-xdpi="217.66693"
   inkscape:export-ydpi="217.66693">
  <defs
     id="defs2" />
  <sodipodi:namedview
     id="base"
     pagecolor="#ffffff"
     bordercolor="#666666"
     borderopacity="1.0"
     inkscape:pageopacity="0.0"
     inkscape:pageshadow="2"
     inkscape:zoom="0.98994949"
     inkscape:cx="1325.7101"
     inkscape:cy="835.53438"
     inkscape:document-units="mm"
     inkscape:current-layer="layer1"
     showgrid="false"
     inkscape:snap-global="false"
     showguides="true"
     inkscape:guide-bbox="true"
     inkscape:window-width="3747"
     inkscape:window-height="1057"
     inkscape:window-x="85"
     inkscape:window-y="-8"
     inkscape:window-maximized="1">
    <sodipodi:guide
       position="124.30692,205.85529"
       orientation="1,0"
       id="guide1138"
       inkscape:locked="false" />
    <sodipodi:guide
       position="128.13393,204.43788"
       orientation="1,0"
       id="guide1140"
       inkscape:locked="false" />
    <sodipodi:guide
       position="61.610118,211.95016"
       orientation="0,1"
       id="guide1146"
       inkscape:locked="false" />
    <sodipodi:guide
       position="79.847469,180.86161"
       orientation="0,1"
       id="guide1148"
       inkscape:locked="false" />
  </sodipodi:namedview>
  <metadata
     id="metadata5">
    <rdf:RDF>
      <cc:Work
         rdf:about="">
        <dc:format>image/svg+xml</dc:format>
        <dc:type
           rdf:resource="http://purl.org/dc/dcmitype/StillImage" />
        <dc:title></dc:title>
      </cc:Work>
    </rdf:RDF>
  </metadata>
  <g
     inkscape:label="Layer 1"
     inkscape:groupmode="layer"
     id="layer1">
    <g
       id="g1124"
       transform="matrix(1.0971436,0,0,1.0326437,-6.7284835,-0.83212116)">
      <path
         id="rect10"
         d="m 31.671969,80.616784 18.965767,16.874939 h 6.693648 l -9.39891,-8.362799 h -3.400308 v -3.025653 l -6.166549,-5.486487 z"
         style="fill:#8965d1;fill-opacity:1;stroke:none;stroke-width:0.1530612;stroke-opacity:1"
         inkscape:connector-curvature="0" />
      <path
         id="rect12"
         d="M 44.532166,86.04901 31.671969,97.491723 h 6.693648 l 9.398908,-8.362799 h -3.232359 z"
         style="fill:#00e8b0;fill-opacity:1;stroke-width:0.1530612"
         inkscape:connector-curvature="0" />
      <path
         id="rect822"
         d="m 31.671969,97.437979 9.20874,8.193301 h 3.788916 v 3.37137 l 5.968111,5.30975 h 6.693648 L 38.365617,97.437979 Z"
         style="fill:#8965d1;fill-opacity:1;stroke:none;stroke-width:0.1530612;stroke-opacity:1"
         inkscape:connector-curvature="0" />
      <path
         id="rect824"
         d="m 50.637736,97.437979 -9.208741,8.193301 h 3.24063 v 3.07216 L 57.331384,97.437979 Z"
         style="fill:#01e3a9;fill-opacity:1;stroke-width:0.1530612"
         inkscape:connector-curvature="0" />
    </g>
    <g
       id="g1134"
       transform="matrix(1.0001163,0,0,0.95849136,-0.01224165,4.8152629)">
      <path
         inkscape:connector-curvature="0"
         id="path884"
         d="m 59.504275,84.108954 v 31.792176 h 3.827981 V 101.402 h 0.0072 V 99.444762 H 80.230888 V 101.402 h 0.0083 v 14.49913 h 3.82798 V 84.108954 H 80.239213 V 98.054395 H 63.332256 V 84.108954 Z"
         style="font-style:normal;font-variant:normal;font-weight:normal;font-stretch:normal;font-size:96px;line-height:1.25;font-family:Gadugi;-inkscape-font-specification:Gadugi;letter-spacing:0px;word-spacing:0px;fill:#282b30;fill-opacity:1;stroke:#4f4f60;stroke-width:0.46134171;stroke-miterlimit:4;stroke-dasharray:none;stroke-opacity:1" />
      <path
         d="m 115.08002,115.8925 h -3.06707 V 84.073928 h 3.06707 z"
         style="font-style:normal;font-variant:normal;font-weight:normal;font-stretch:normal;font-size:96px;line-height:1.25;font-family:Gadugi;-inkscape-font-specification:Gadugi;letter-spacing:0px;word-spacing:0px;fill:#282b30;fill-opacity:1;stroke:#4f4f60;stroke-width:0.47924504;stroke-miterlimit:4;stroke-dasharray:none;stroke-opacity:1"
         id="path888"
         inkscape:connector-curvature="0" />
      <path
         inkscape:connector-curvature="0"
         id="path890"
         d="m 127.91972,115.90321 h -3.353 V 96.427829 h 3.353 z"
         style="font-style:normal;font-variant:normal;font-weight:normal;font-stretch:normal;font-size:96px;line-height:1.25;font-family:Gadugi;-inkscape-font-specification:Gadugi;letter-spacing:0px;word-spacing:0px;fill:#282b30;fill-opacity:1;stroke:#4f4f60;stroke-width:0.45758924;stroke-miterlimit:4;stroke-dasharray:none;stroke-opacity:1" />
      <path
         d="m 150.77381,96.514737 -6.37916,9.816443 6.26789,9.58904 h -3.5419 l -3.72736,-6.29162 q -0.35234,-0.58747 -0.83448,-1.47815 h -0.0741 q -0.0927,0.17056 -0.87157,1.47815 l -3.80154,6.29162 h -3.50482 l 6.47187,-9.51324 -6.19371,-9.892243 h 3.54193 l 3.6717,6.632753 q 0.40797,0.73905 0.7974,1.51604 h 0.0741 l 4.74727,-8.148793 z"
         style="font-style:normal;font-variant:normal;font-weight:normal;font-stretch:normal;font-size:96px;line-height:1.25;font-family:Gadugi;-inkscape-font-specification:Gadugi;letter-spacing:0px;word-spacing:0px;fill:#282b30;fill-opacity:1;stroke:#4f4f60;stroke-width:0.42424065;stroke-miterlimit:4;stroke-dasharray:none;stroke-opacity:1"
         id="path892"
         inkscape:connector-curvature="0" />
      <rect
         transform="matrix(0.72481191,-0.6889468,0.72481191,0.6889468,0,0)"
         y="150.28587"
         x="20.03513"
         height="3.8178174"
         width="3.8178174"
         id="rect882"
         style="fill:#282b30;fill-opacity:1;stroke:#4f4f60;stroke-width:0.30601519;stroke-linejoin:round;stroke-miterlimit:4;stroke-dasharray:none;stroke-opacity:1" />
      <path
         inkscape:connector-curvature="0"
         id="flowRoot916"
         d="m 98.147891,96.539457 c -2.850796,0 -5.124912,0.885911 -6.822351,2.657369 -1.697857,1.760534 -2.49015,4.133324 -2.37667,7.118574 0.11514,3.02898 1.111219,5.36904 2.988131,7.02021 1.888838,1.64025 4.480616,2.46029 7.775694,2.46029 0.839195,0 1.529005,-0.0436 2.068685,-0.13113 0.40252,-0.0638 0.84808,-0.15495 1.31465,-0.25943 l -1.60193,-2.47161 c -0.62472,0.11263 -1.26419,0.17242 -1.920431,0.17242 -2.135014,0 -3.828495,-0.56341 -5.080739,-1.68969 -1.252244,-1.12631 -1.919217,-2.75547 -2.000274,-4.88777 h 14.328364 l -0.0636,-1.6731 c -0.0557,-1.46529 -0.30017,-2.70078 -0.73333,-3.70681 -0.43358,-1.01696 -1.03407,-1.875379 -1.80115,-2.575215 -0.76706,-0.699837 -1.65052,-1.213923 -2.65028,-1.541971 -0.99976,-0.328048 -2.14131,-0.492137 -3.424789,-0.492137 z m -0.106955,2.542436 c 0.937926,0 1.726028,0.120438 2.364564,0.361 0.65089,0.240572 1.18885,0.590557 1.61355,1.049847 0.38604,0.41553 0.6893,0.92396 0.90963,1.52537 0.22032,0.60143 0.35861,1.31759 0.41488,2.14863 H 92.402871 c 0.04452,-0.77637 0.191624,-1.45454 0.441098,-2.03409 0.249058,-0.59048 0.623709,-1.12599 1.123744,-1.60714 0.512793,-0.47021 1.085296,-0.825854 1.717889,-1.066427 0.644519,-0.251504 1.429748,-0.37719 2.355334,-0.37719 z"
         style="font-style:normal;font-weight:normal;font-size:40px;line-height:1.25;font-family:sans-serif;letter-spacing:0px;word-spacing:0px;fill:#282b30;fill-opacity:1;stroke:#4f4f60;stroke-width:0.48469153;stroke-miterlimit:4;stroke-dasharray:none;stroke-opacity:1" />
    </g>
  </g>
</svg>
