<?xml version="1.0" encoding="UTF-8" standalone="no"?>
<!-- Created with Inkscape (http://www.inkscape.org/) -->

<svg
   xmlns:dc="http://purl.org/dc/elements/1.1/"
   xmlns:cc="http://creativecommons.org/ns#"
   xmlns:rdf="http://www.w3.org/1999/02/22-rdf-syntax-ns#"
   xmlns:svg="http://www.w3.org/2000/svg"
   xmlns="http://www.w3.org/2000/svg"
   xmlns:sodipodi="http://sodipodi.sourceforge.net/DTD/sodipodi-0.dtd"
   xmlns:inkscape="http://www.inkscape.org/namespaces/inkscape"
   width="210mm"
   height="297mm"
   viewBox="0 0 210 297"
   version="1.1"
   id="svg8"
   inkscape:version="0.92.4 (5da689c313, 2019-01-14)"
   sodipodi:docname="helix_logo.svg"
   inkscape:export-filename="C:\Users\scriplez\Desktop\helix_logo.png"
   inkscape:export-xdpi="217.66693"
   inkscape:export-ydpi="217.66693">
  <defs
     id="defs2" />
  <sodipodi:namedview
     id="base"
     pagecolor="#ffffff"
     bordercolor="#666666"
     borderopacity="1.0"
     inkscape:pageopacity="0.0"
     inkscape:pageshadow="2"
     inkscape:zoom="0.98994949"
     inkscape:cx="1061.0648"
     inkscape:cy="848.20853"
     inkscape:document-units="mm"
     inkscape:current-layer="layer1"
     showgrid="false"
     inkscape:snap-global="false"
     showguides="true"
     inkscape:guide-bbox="true"
     inkscape:window-width="3747"
     inkscape:window-height="1057"
     inkscape:window-x="85"
     inkscape:window-y="-8"
     inkscape:window-maximized="1">
    <sodipodi:guide
       position="61.610118,211.95016"
       orientation="0,1"
       id="guide1146"
       inkscape:locked="false" />
    <sodipodi:guide
       position="79.847469,180.86161"
       orientation="0,1"
       id="guide1148"
       inkscape:locked="false" />
  </sodipodi:namedview>
  <metadata
     id="metadata5">
    <rdf:RDF>
      <cc:Work
         rdf:about="">
        <dc:format>image/svg+xml</dc:format>
        <dc:type
           rdf:resource="http://purl.org/dc/dcmitype/StillImage" />
        <dc:title />
      </cc:Work>
    </rdf:RDF>
  </metadata>
  <g
     inkscape:label="Layer 1"
     inkscape:groupmode="layer"
     id="layer1">
    <path
       inkscape:connector-curvature="0"
       id="path836"
       style="font-style:normal;font-variant:normal;font-weight:normal;font-stretch:normal;font-size:40px;line-height:1.25;font-family:'Adobe Heiti Std';-inkscape-font-specification:'Adobe Heiti Std';letter-spacing:0px;word-spacing:0px;fill:#6e2d2d;fill-opacity:1;stroke:none;stroke-width:0.94530565;stroke-miterlimit:4;stroke-dasharray:none;stroke-opacity:1"
       d="m 166.00513,97.295729 -3.03418,8.741121 c -0.81474,2.28241 -1.57329,4.63767 -2.07899,6.84723 h -0.0843 c -0.53381,-2.23384 -1.23617,-4.51625 -2.0228,-6.87151 l -2.83754,-8.741122 h -3.56798 l 6.51789,18.599172 h 3.62417 l 6.9674,-18.574891 z" />
    <path
       inkscape:connector-curvature="0"
       id="path838"
       style="font-style:normal;font-variant:normal;font-weight:normal;font-stretch:normal;font-size:40px;line-height:1.25;font-family:'Adobe Heiti Std';-inkscape-font-specification:'Adobe Heiti Std';letter-spacing:0px;word-spacing:0px;fill:#6e2d2d;fill-opacity:1;stroke:none;stroke-width:0.94530565;stroke-miterlimit:4;stroke-dasharray:none;stroke-opacity:1"
       d="m 181.14774,106.98382 c 2.16326,-0.70415 3.84893,-2.33097 3.84893,-4.7105 0,-1.50542 -0.59,-2.792309 -1.71376,-3.642141 -1.34853,-1.044079 -3.31514,-1.481136 -6.12457,-1.481136 -1.93852,0 -3.84893,0.169967 -5.22555,0.388495 v 18.332082 h 3.23086 v -7.86701 h 1.9666 c 2.27563,0 3.31513,0.94696 3.90512,3.42361 0.53379,2.2824 1.03948,3.90923 1.34852,4.4434 h 3.37133 c -0.42143,-0.70413 -0.95521,-2.62232 -1.60139,-5.05041 -0.5057,-1.96677 -1.40472,-3.27793 -3.00609,-3.78783 z m -5.98409,-1.09266 v -6.385867 c 0.39331,-0.09712 1.17995,-0.169967 2.27563,-0.169967 2.33184,0 4.29844,0.825554 4.29844,3.229364 0,1.99104 -1.68566,3.32647 -4.38272,3.32647 z" />
    <g
       id="g1124"
       transform="matrix(1.0971436,0,0,1.0326437,-6.7284835,-0.83212116)">
      <path
         id="rect10"
         d="m 31.671969,80.616784 18.965767,16.874939 h 6.693648 l -9.39891,-8.362799 h -3.400308 v -3.025653 l -6.166549,-5.486487 z"
         style="fill:#8965d1;fill-opacity:1;stroke:none;stroke-width:0.1530612;stroke-opacity:1"
         inkscape:connector-curvature="0" />
      <path
         id="rect12"
         d="M 44.532166,86.04901 31.671969,97.491723 h 6.693648 l 9.398908,-8.362799 h -3.232359 z"
         style="fill:#00e8b0;fill-opacity:1;stroke-width:0.1530612"
         inkscape:connector-curvature="0" />
      <path
         id="rect822"
         d="m 31.671969,97.437979 9.20874,8.193301 h 3.788916 v 3.37137 l 5.968111,5.30975 h 6.693648 L 38.365617,97.437979 Z"
         style="fill:#8965d1;fill-opacity:1;stroke:none;stroke-width:0.1530612;stroke-opacity:1"
         inkscape:connector-curvature="0" />
      <path
         id="rect824"
         d="m 50.637736,97.437979 -9.208741,8.193301 h 3.24063 v 3.07216 L 57.331384,97.437979 Z"
         style="fill:#01e3a9;fill-opacity:1;stroke-width:0.1530612"
         inkscape:connector-curvature="0" />
    </g>
    <g
       id="g1134"
       transform="matrix(1.0001163,0,0,0.95849136,-0.01224165,4.8152629)">
      <path
         inkscape:connector-curvature="0"
         id="path884"
         d="m 59.504275,84.108954 v 31.792176 h 3.827981 V 101.402 h 0.0072 V 99.444762 H 80.230888 V 101.402 h 0.0083 v 14.49913 h 3.82798 V 84.108954 H 80.239213 V 98.054395 H 63.332256 V 84.108954 Z"
         style="font-style:normal;font-variant:normal;font-weight:normal;font-stretch:normal;font-size:96px;line-height:1.25;font-family:Gadugi;-inkscape-font-specification:Gadugi;letter-spacing:0px;word-spacing:0px;fill:#282b30;fill-opacity:1;stroke:#4f4f60;stroke-width:0.46134171;stroke-miterlimit:4;stroke-dasharray:none;stroke-opacity:1" />
      <path
         d="m 112.40764,115.8925 h -3.06707 V 84.073928 h 3.06707 z"
         style="font-style:normal;font-variant:normal;font-weight:normal;font-stretch:normal;font-size:96px;line-height:1.25;font-family:Gadugi;-inkscape-font-specification:Gadugi;letter-spacing:0px;word-spacing:0px;fill:#282b30;fill-opacity:1;stroke:#4f4f60;stroke-width:0.47924504;stroke-miterlimit:4;stroke-dasharray:none;stroke-opacity:1"
         id="path888"
         inkscape:connector-curvature="0" />
      <path
         inkscape:connector-curvature="0"
         id="path890"
         d="m 122.84219,115.90321 h -3.353 V 96.427829 h 3.353 z"
         style="font-style:normal;font-variant:normal;font-weight:normal;font-stretch:normal;font-size:96px;line-height:1.25;font-family:Gadugi;-inkscape-font-specification:Gadugi;letter-spacing:0px;word-spacing:0px;fill:#282b30;fill-opacity:1;stroke:#4f4f60;stroke-width:0.45758924;stroke-miterlimit:4;stroke-dasharray:none;stroke-opacity:1" />
      <path
         d="m 144.40594,96.514737 -6.37916,9.816443 6.26789,9.58904 h -3.5419 l -3.72736,-6.29162 q -0.35234,-0.58747 -0.83448,-1.47815 h -0.0741 q -0.0927,0.17056 -0.87157,1.47815 l -3.80154,6.29162 h -3.50482 l 6.47187,-9.51324 -6.19371,-9.892243 h 3.54193 l 3.6717,6.632753 q 0.40797,0.73905 0.7974,1.51604 h 0.0741 l 4.74727,-8.148793 z"
         style="font-style:normal;font-variant:normal;font-weight:normal;font-stretch:normal;font-size:96px;line-height:1.25;font-family:Gadugi;-inkscape-font-specification:Gadugi;letter-spacing:0px;word-spacing:0px;fill:#282b30;fill-opacity:1;stroke:#4f4f60;stroke-width:0.42424065;stroke-miterlimit:4;stroke-dasharray:none;stroke-opacity:1"
         id="path892"
         inkscape:connector-curvature="0" />
      <rect
         transform="matrix(0.72481191,-0.6889468,0.72481191,0.6889468,0,0)"
         y="146.78322"
         x="16.532476"
         height="3.8178174"
         width="3.8178174"
         id="rect882"
         style="fill:#282b30;fill-opacity:1;stroke:#4f4f60;stroke-width:0.30601519;stroke-linejoin:round;stroke-miterlimit:4;stroke-dasharray:none;stroke-opacity:1" />
      <path
         inkscape:connector-curvature="0"
         id="flowRoot916"
         d="m 96.861036,96.809972 c -2.661788,0 -4.785131,0.886678 -6.37003,2.659668 -1.585289,1.76205 -2.325053,4.1369 -2.219096,7.12473 0.107506,3.0316 1.037545,5.37368 2.790018,7.02628 1.763608,1.64167 4.183551,2.46242 7.260166,2.46242 0.783556,0 1.42763,-0.0436 1.931526,-0.13124 0.37583,-0.0639 0.79185,-0.15509 1.22749,-0.25966 l -1.495716,-2.47375 c -0.5833,0.11273 -1.180377,0.17257 -1.793109,0.17257 -1.993463,0 -3.574666,-0.5639 -4.743886,-1.69115 -1.169221,-1.12728 -1.791973,-2.75785 -1.867656,-4.892 h 13.378387 l -0.0594,-1.67455 c -0.052,-1.46655 -0.28027,-2.70311 -0.68471,-3.71001 -0.40483,-1.01784 -0.96551,-1.876999 -1.68173,-2.57744 -0.71621,-0.700443 -1.54109,-1.214973 -2.47457,-1.543305 -0.933473,-0.328332 -1.999338,-0.492563 -3.197723,-0.492563 z m -0.09986,2.544635 c 0.875742,0 1.611593,0.120543 2.207794,0.361313 0.607734,0.24078 1.11002,0.59106 1.50656,1.05075 0.36045,0.41589 0.6436,0.92476 0.84933,1.52669 0.20571,0.60195 0.33483,1.31873 0.38737,2.15049 H 91.49691 c 0.04157,-0.77704 0.17892,-1.4558 0.411854,-2.03585 0.232545,-0.59099 0.582357,-1.12696 1.04924,-1.60853 0.478794,-0.47062 1.013341,-0.826565 1.603993,-1.067346 0.601787,-0.251722 1.334955,-0.377517 2.199175,-0.377517 z"
         style="font-style:normal;font-weight:normal;font-size:40px;line-height:1.25;font-family:sans-serif;letter-spacing:0px;word-spacing:0px;fill:#282b30;fill-opacity:1;stroke:#4f4f60;stroke-width:0.46855101;stroke-miterlimit:4;stroke-dasharray:none;stroke-opacity:1" />
    </g>
  </g>
</svg>
